{
  "accessors": [
    {
      "bufferView": 3,
      "componentType": 5126,
      "count": 5036,
      "max": [
        5.4453349113464355,
        5.629261493682861,
        1.7740733623504639
      ],
      "min": [
        -3.388718366622925,
        -0.1124441847205162,
        -1.7740734815597534
      ],
      "type": "VEC3"
    },
    {
      "bufferView": 3,
      "byteOffset": 60432,
      "componentType": 5126,
      "count": 5036,
      "max": [
        1.0,
        1.0,
        1.0
      ],
      "min": [
        -1.0,
        -1.0,
        -1.0
      ],
      "type": "VEC3"
    },
    {
      "bufferView": 2,
      "componentType": 5126,
      "count": 5036,
      "max": [
        0.9931640625,
        0.9965190887451172
      ],
      "min": [
        0.0004978179931640625,
        0.0068359375
      ],
      "type": "VEC2"
    },
    {
      "bufferView": 1,
      "componentType": 5125,
      "count": 18012,
      "type": "SCALAR"
    },
    {
      "bufferView": 5,
      "componentType": 5126,
      "count": 16,
      "max": [
        100.0,
        0.0,
        0.0,
        0.0,
        0.0,
        100.0,
        2.028160110967292e-07,
        0.0,
        0.0,
        0.0,
        100.0,
        0.0,
        2.4827146530151367,
        0.0,
        1.727911298201809e-13,
        1.0
      ],
      "min": [
        1.0,
        0.0,
        0.0,
        0.0,
        0.0,
        1.0,
        0.0,
        0.0,
        0.0,
        -2.028160110967292e-07,
        1.0,
        0.0,
        -4.292222499847412,
        -5.396326065063477,
        -2.7785819435230397e-13,
        1.0
      ],
      "type": "MAT4"
    },
    {
      "bufferView": 0,
      "componentType": 5123,
      "count": 5036,
      "type": "VEC4"
    },
    {
      "bufferView": 4,
      "componentType": 5126,
      "count": 5036,
      "max": [
        1.0,
        0.49803924560546875,
        0.1098039299249649,
        0.0235294122248888
      ],
      "min": [
        0.501960813999176,
        0.0,
        0.0,
        0.0
      ],
      "type": "VEC4"
    }
  ],
  "asset": {
    "extras": {
      "author": "romyblox (https://sketchfab.com/romyblox)",
      "license": "CC-BY-4.0 (http://creativecommons.org/licenses/by/4.0/)",
      "source": "https://sketchfab.com/3d-models/bus-spongebob-bfbbr-ab8d7d3061044cf0a7d6e2cac48c21d2",
      "title": "Bus - Spongebob bfbbr"
    },
    "generator": "Sketchfab-15.30.0",
    "version": "2.0"
  },
  "bufferViews": [
    {
      "buffer": 0,
      "byteLength": 40288,
      "byteStride": 8,
      "name": "shortBufferViews",
      "target": 34962
    },
    {
      "buffer": 0,
      "byteLength": 72048,
      "byteOffset": 40288,
      "name": "floatBufferViews",
      "target": 34963
    },
    {
      "buffer": 0,
      "byteLength": 40288,
      "byteOffset": 112336,
      "byteStride": 8,
      "name": "floatBufferViews",
      "target": 34962
    },
    {
      "buffer": 0,
      "byteLength": 120864,
      "byteOffset": 152624,
      "byteStride": 12,
      "name": "floatBufferViews",
      "target": 34962
    },
    {
      "buffer": 0,
      "byteLength": 80576,
      "byteOffset": 273488,
      "byteStride": 16,
      "name": "floatBufferViews",
      "target": 34962
    },
    {
      "buffer": 0,
      "byteLength": 1024,
      "byteOffset": 354064,
      "name": "floatBufferViews"
    }
  ],
  "buffers": [
    {
      "byteLength": 355088,
      "uri": "scene.bin"
    }
  ],
  "images": [
    {
      "uri": "textures/MI_JF_Bus_01_baseColor.png"
    }
  ],
  "materials": [
    {
      "doubleSided": true,
      "name": "MI_JF_Bus_01",
      "pbrMetallicRoughness": {
        "baseColorTexture": {
          "index": 0
        },
        "metallicFactor": 0.0,
        "roughnessFactor": 0.8211145618000169
      }
    }
  ],
  "meshes": [
    {
      "name": "SK_Bus.mo_MI_JF_Bus_01_0",
      "primitives": [
        {
          "attributes": {
            "JOINTS_0": 5,
            "NORMAL": 1,
            "POSITION": 0,
            "TEXCOORD_0": 2,
            "TEXCOORD_1": 2,
            "WEIGHTS_0": 6
          },
          "indices": 3,
          "material": 0,
          "mode": 4
        }
      ]
    }
  ],
  "nodes": [
    {
      "children": [
        1
      ],
      "matrix": [
        1.0,
        0.0,
        0.0,
        0.0,
        0.0,
        2.220446049250313e-16,
        -1.0,
        0.0,
        0.0,
        1.0,
        2.220446049250313e-16,
        0.0,
        0.0,
        0.0,
        0.0,
        1.0
      ],
      "name": "Sketchfab_model"
    },
    {
      "children": [
        2
      ],
      "matrix": [
        0.009999999776482582,
        0.0,
        0.0,
        0.0,
        0.0,
        0.0,
        0.009999999776482582,
        0.0,
        0.0,
        -0.009999999776482582,
        0.0,
        0.0,
        0.0,
        0.0,
        0.0,
        1.0
      ],
      "name": "bus.fbx"
    },
    {
      "children": [
        3,
        5
      ],
      "name": "RootNode"
    },
    {
      "children": [
        4
      ],
      "matrix": [
        -571.7310780575052,
        4.9533769173034566e-05,
        -978.3999865595398,
        0.0,
        2.4991170187794547e-05,
        1133.2003173828114,
        4.276722695162975e-05,
        0.0,
        978.3999865595407,
        -6.887802604435965e-12,
        -571.7310780575057,
        0.0,
        809.7736206054688,
        217.9063720703125,
        1200.52001953125,
        1.0
      ],
      "name": "Camera"
    },
    {
      "name": "Object_4"
    },
    {
      "children": [
        6
      ],
      "matrix": [
        100.0,
        0.0,
        0.0,
        0.0,
        0.0,
        -1.629206793918314e-05,
        -99.99999999999868,
        0.0,
        0.0,
        99.99999999999868,
        -1.629206793918314e-05,
        0.0,
        0.0,
        0.0,
        0.0,
        1.0
      ],
      "name": "SK_Bus.ao"
    },
    {
      "children": [
        7,
        24,
        23
      ],
      "name": "Object_6"
    },
    {
      "children": [
        8
      ],
      "name": "_rootJoint"
    },
    {
      "children": [
        9
      ],
      "name": "jt_root_00",
      "rotation": [
        0.7071067094802856,
        0.0,
        0.0,
        0.7071068286895752
      ]
    },
    {
      "children": [
        10,
        20,
        21,
        22
      ],
      "name": "jt_Main_01",
      "rotation": [
        -5.293955920339377e-23,
        -0.0,
        0.0,
        1.0
      ]
    },
    {
      "children": [
        11,
        17
      ],
      "name": "jt_body1_02",
      "rotation": [
        -2.6469779601696886e-23,
        -0.0,
        0.0,
        1.0
      ],
      "translation": [
        0.0,
        1.194251298904419,
        -2.842170943040401e-14
      ]
    },
    {
      "children": [
        12,
        13
      ],
      "name": "jt_body2_03",
      "rotation": [
        -2.6469779601696886e-23,
        -0.0,
        0.0,
        1.0
      ],
      "translation": [
        0.0,
        1.7602660655975342,
        -2.842170943040401e-14
      ]
    },
    {
      "name": "jt_body_End_04",
      "rotation": [
        -4.263256414560601e-14,
        -0.0,
        0.0,
        1.0
      ],
      "translation": [
        0.0,
        1.6466279029846191,
        -5.684341886080802e-14
      ]
    },
    {
      "children": [
        14
      ],
      "name": "jt_periscope_05",
      "rotation": [
        -4.263256414560601e-14,
        -0.0,
        0.0,
        1.0
      ],
      "translation": [
        -2.020103931427002,
        1.5284175872802734,
        -5.684341886080802e-14
      ]
    },
    {
      "children": [
        15
      ],
      "name": "jt_periscope1_06",
      "translation": [
        -0.08952474594116211,
        0.8364648818969727,
        -5.684341886080802e-14
      ]
    },
    {
      "children": [
        16
      ],
      "name": "jt_periscope2_07",
      "rotation": [
        -2.6469779601696886e-23,
        -0.0,
        0.0,
        1.0
      ],
      "translation": [
        -0.37308597564697266,
        0.07692670822143555,
        2.117582368135751e-22
      ]
    },
    {
      "name": "jt_periscope3_08",
      "rotation": [
        -2.6469779601696886e-23,
        -0.0,
        0.0,
        1.0
      ],
      "translation": [
        -0.07612156867980957,
        2.611244553918368e-13,
        -4.235164736271502e-22
      ]
    },
    {
      "children": [
        18
      ],
      "name": "jt_propeller1_09",
      "rotation": [
        1.4210854715202004e-14,
        0.0,
        0.0,
        1.0
      ],
      "translation": [
        4.189862251281738,
        1.0378892421722412,
        -5.684341886080802e-14
      ]
    },
    {
      "children": [
        19
      ],
      "name": "jt_propeller2_010",
      "rotation": [
        -7.105427357601002e-15,
        -0.0,
        0.0,
        1.0
      ],
      "translation": [
        0.10236024856567383,
        1.0791367799356522e-13,
        0.0
      ]
    },
    {
      "name": "jt_propeller_End_011",
      "translation": [
        0.40285348892211914,
        1.0835776720341528e-13,
        1.0587911840678754e-22
      ]
    },
    {
      "name": "jt_wheel1_012",
      "rotation": [
        -1.7763568394002505e-14,
        -0.0,
        0.0,
        1.0
      ],
      "translation": [
        -1.8463667631149292,
        0.39805904030799866,
        -7.105427357601002e-15
      ]
    },
    {
      "name": "jt_wheel3_013",
      "rotation": [
        -1.7763568394002505e-14,
        -0.0,
        0.0,
        1.0
      ],
      "translation": [
        2.608309268951416,
        0.39805904030799866,
        -7.105427357601002e-15
      ]
    },
    {
      "name": "jt_wheel2_014",
      "rotation": [
        -1.7763568394002505e-14,
        -0.0,
        0.0,
        1.0
      ],
      "translation": [
        1.570237636566162,
        0.39805904030799866,
        -7.105427357601002e-15
      ]
    },
    {
      "matrix": [
        100.0,
        0.0,
        0.0,
        0.0,
        0.0,
        8.054838117258884e-13,
        -100.00000000000483,
        0.0,
        0.0,
        100.00000000000483,
        8.054838117258884e-13,
        0.0,
        0.0,
        0.0,
        0.0,
        1.0
      ],
      "name": "Object_23"
    },
    {
      "mesh": 0,
      "name": "Object_24",
      "skin": 0
    }
  ],
  "samplers": [
    {
      "magFilter": 9729,
      "minFilter": 9987,
      "wrapS": 10497,
      "wrapT": 10497
    }
  ],
  "scene": 0,
  "scenes": [
    {
      "name": "Sketchfab_Scene",
      "nodes": [
        0
      ]
    }
  ],
  "skins": [
    {
      "inverseBindMatrices": 4,
      "joints": [
        7,
        8,
        9,
        10,
        11,
        12,
        13,
        14,
        15,
        16,
        17,
        18,
        19,
        20,
        21,
        22
      ],
      "skeleton": 7
    }
  ],
  "textures": [
    {
      "sampler": 0,
      "source": 0
    }
  ]
}
