# Blender v2.92.0 OBJ File: 'Low_Poly_Fir.blend'
# www.blender.org
mtllib Low_Poly_Fir.mtl
o Cylinder
v -0.000000 1.278620 -3.199989
v 0.000000 17.424702 0.000000
v 1.547804 1.631143 -2.136727
v 0.000000 17.424702 0.000000
v 3.043370 1.278620 -0.988851
v 0.000000 17.424702 0.000000
v 2.504399 1.631143 0.816157
v 0.000000 17.424702 0.000000
v 1.880906 1.278620 2.588845
v 0.000000 17.424702 0.000000
v -0.000000 1.631143 2.641139
v 0.000000 17.424702 0.000000
v -1.880907 1.278620 2.588845
v 0.000000 17.424702 0.000000
v -2.504399 1.631143 0.816157
v 0.000000 17.424702 0.000000
v -3.043370 1.278620 -0.988851
v 0.000000 17.424702 0.000000
v -1.547803 1.631143 -2.136727
v 0.000000 17.424702 0.000000
v -0.000000 4.322157 -2.330265
v -0.000000 6.660648 -2.133326
v -0.000000 9.704184 -1.320570
v -0.000000 12.042675 -1.066663
v 0.000000 15.086212 -0.440190
v 0.313484 14.733688 -0.431474
v 0.515935 12.395199 -0.712242
v 0.940453 9.351662 -1.294423
v 1.031869 7.013171 -1.424485
v 1.567422 3.969634 -2.157371
v 0.417400 15.086212 -0.136026
v 1.014457 12.042675 -0.329617
v 1.252200 9.704185 -0.408078
v 2.028913 6.660648 -0.659234
v 2.209620 4.322157 -0.720091
v 0.507228 14.733688 0.164809
v 0.834800 12.395199 0.272052
v 1.521685 9.351662 0.494426
v 1.669600 7.013171 0.544105
v 2.536142 3.969634 0.824043
v 0.257967 15.086212 0.356121
v 0.626969 12.042675 0.862949
v 0.773902 9.704185 1.068363
v 1.253937 6.660648 1.725897
v 1.365620 4.322157 1.885224
v -0.000000 14.733688 0.533332
v -0.000000 12.395199 0.880380
v -0.000000 9.351662 1.599994
v -0.000000 7.013171 1.760760
v -0.000000 3.969634 2.666657
v -0.257967 15.086212 0.356121
v -0.626969 12.042675 0.862948
v -0.773902 9.704185 1.068363
v -1.253938 6.660648 1.725897
v -1.365620 4.322157 1.885224
v -0.507228 14.733688 0.164809
v -0.834800 12.395199 0.272052
v -1.521685 9.351662 0.494426
v -1.669600 7.013171 0.544105
v -2.536142 3.969634 0.824043
v -0.417400 15.086212 -0.136026
v -1.014457 12.042675 -0.329617
v -1.252200 9.704185 -0.408079
v -2.028913 6.660648 -0.659234
v -2.209620 4.322157 -0.720092
v -0.313484 14.733688 -0.431474
v -0.515934 12.395199 -0.712242
v -0.940453 9.351662 -1.294423
v -1.031869 7.013171 -1.424485
v -1.567421 3.969634 -2.157372
v 0.952844 6.365839 -1.311476
v 1.541733 6.365839 -0.500939
v 1.541733 6.365839 0.500940
v 0.952843 6.365839 1.311476
v -0.000000 6.365839 1.621074
v -0.952843 6.365839 1.311476
v -1.541733 6.365839 0.500940
v -1.541733 6.365839 -0.500940
v -0.952843 6.365839 -1.311477
v 0.000000 6.365839 -1.621074
v -0.000000 8.709110 -1.205822
v 0.708764 8.709110 -0.975530
v 1.146805 8.709110 -0.372619
v 1.146805 8.709110 0.372619
v 0.708764 8.709110 0.975530
v -0.000000 8.709110 1.205822
v -0.708764 8.709110 0.975530
v -1.146805 8.709110 0.372620
v -1.146805 8.709110 -0.372620
v -0.708764 8.709110 -0.975531
v -0.000000 10.945961 -0.886433
v 0.521032 10.945961 -0.717140
v 0.843048 10.945961 -0.273923
v 0.843048 10.945961 0.273923
v 0.521032 10.945961 0.717140
v -0.000000 10.945961 0.886433
v -0.521033 10.945961 0.717140
v -0.843048 10.945961 0.273923
v -0.843048 10.945961 -0.273923
v -0.521032 10.945961 -0.717140
v 0.000000 13.120590 -0.601790
v 0.353723 13.120590 -0.486858
v 0.572336 13.120590 -0.185963
v 0.572336 13.120590 0.185963
v 0.353723 13.120590 0.486858
v -0.000000 13.120590 0.601790
v -0.353723 13.120590 0.486858
v -0.572336 13.120590 0.185963
v -0.572336 13.120590 -0.185963
v -0.353723 13.120590 -0.486858
v 0.000000 15.342186 -0.268385
v 0.157753 15.342186 -0.217128
v 0.255249 15.342186 -0.082935
v 0.255249 15.342186 0.082935
v 0.157753 15.342186 0.217128
v -0.000000 15.342186 0.268385
v -0.157753 15.342186 0.217128
v -0.255249 15.342186 0.082936
v -0.255249 15.342186 -0.082936
v -0.157753 15.342186 -0.217128
v -0.000000 2.688647 0.000000
v 0.000000 2.688647 0.000000
v 0.000000 2.688647 -0.000000
v 0.000000 2.688647 -0.000000
v 0.000000 2.688647 0.000000
v -0.000000 2.688647 0.000000
v 0.000000 2.688647 0.000000
v 0.000000 2.688647 -0.000000
v 0.000000 2.688647 -0.000000
v 0.000000 2.688647 0.000000
vt 1.000000 0.916667
vt 1.000000 1.000000
vt 0.900000 1.000000
vt 0.900000 0.916667
vt 0.800000 1.000000
vt 0.800000 0.916667
vt 0.700000 1.000000
vt 0.700000 0.916667
vt 0.600000 1.000000
vt 0.600000 0.916667
vt 0.500000 1.000000
vt 0.500000 0.916667
vt 0.400000 1.000000
vt 0.400000 0.916667
vt 0.300000 1.000000
vt 0.300000 0.916667
vt 0.200000 1.000000
vt 0.200000 0.916667
vt 0.391068 0.444164
vt 0.250000 0.490000
vt 0.108932 0.444164
vt 0.021746 0.324164
vt 0.021746 0.175836
vt 0.108932 0.055836
vt 0.250000 0.010000
vt 0.391068 0.055836
vt 0.478254 0.175836
vt 0.478254 0.324164
vt 0.100000 1.000000
vt 0.100000 0.916667
vt -0.000000 1.000000
vt -0.000000 0.916667
vt 0.400000 0.500000
vt 0.300000 0.500000
vt 0.300000 0.500000
vt 0.400000 0.500000
vt 0.100000 0.583333
vt 0.100000 0.583333
vt -0.000000 0.583333
vt -0.000000 0.583333
vt 0.100000 0.666667
vt 0.100000 0.666667
vt -0.000000 0.666667
vt -0.000000 0.666667
vt 0.100000 0.750000
vt 0.100000 0.750000
vt -0.000000 0.750000
vt -0.000000 0.750000
vt 0.100000 0.833333
vt 0.100000 0.833333
vt -0.000000 0.833333
vt -0.000000 0.833333
vt 0.100000 0.916667
vt -0.000000 0.916667
vt 0.200000 0.583333
vt 0.200000 0.583333
vt 0.200000 0.666667
vt 0.200000 0.666667
vt 0.200000 0.750000
vt 0.200000 0.750000
vt 0.200000 0.833333
vt 0.200000 0.833333
vt 0.200000 0.916667
vt 0.300000 0.583333
vt 0.300000 0.583333
vt 0.300000 0.666667
vt 0.300000 0.666667
vt 0.300000 0.750000
vt 0.300000 0.750000
vt 0.300000 0.833333
vt 0.300000 0.833333
vt 0.300000 0.916667
vt 0.400000 0.583333
vt 0.400000 0.583333
vt 0.400000 0.666667
vt 0.400000 0.666667
vt 0.400000 0.750000
vt 0.400000 0.750000
vt 0.400000 0.833333
vt 0.400000 0.833333
vt 0.400000 0.916667
vt 0.500000 0.583333
vt 0.500000 0.583333
vt 0.500000 0.666667
vt 0.500000 0.666667
vt 0.500000 0.750000
vt 0.500000 0.750000
vt 0.500000 0.833333
vt 0.500000 0.833333
vt 0.500000 0.916667
vt 0.600000 0.583333
vt 0.600000 0.583333
vt 0.600000 0.666667
vt 0.600000 0.666667
vt 0.600000 0.750000
vt 0.600000 0.750000
vt 0.600000 0.833333
vt 0.600000 0.833333
vt 0.600000 0.916667
vt 0.700000 0.583333
vt 0.700000 0.583333
vt 0.700000 0.666667
vt 0.700000 0.666667
vt 0.700000 0.750000
vt 0.700000 0.750000
vt 0.700000 0.833333
vt 0.700000 0.833333
vt 0.700000 0.916667
vt 0.800000 0.583333
vt 0.800000 0.583333
vt 0.800000 0.666667
vt 0.800000 0.666667
vt 0.800000 0.750000
vt 0.800000 0.750000
vt 0.800000 0.833333
vt 0.800000 0.833333
vt 0.800000 0.916667
vt 0.900000 0.583333
vt 0.900000 0.583333
vt 0.900000 0.666667
vt 0.900000 0.666667
vt 0.900000 0.750000
vt 0.900000 0.750000
vt 0.900000 0.833333
vt 0.900000 0.833333
vt 0.900000 0.916667
vt 1.000000 0.583333
vt 1.000000 0.583333
vt 1.000000 0.666667
vt 1.000000 0.666667
vt 1.000000 0.750000
vt 1.000000 0.750000
vt 1.000000 0.833333
vt 1.000000 0.833333
vt 1.000000 0.916667
vt 1.000000 0.500000
vt 0.900000 0.500000
vt 0.800000 0.500000
vt 0.700000 0.500000
vt 0.600000 0.500000
vt 0.500000 0.500000
vt 0.200000 0.500000
vt 0.100000 0.500000
vt -0.000000 0.500000
vt 0.750000 0.490000
vt 0.891068 0.444164
vt 0.978254 0.324164
vt 0.978254 0.175836
vt 0.891068 0.055836
vt 0.750000 0.010000
vt 0.608932 0.055836
vt 0.521746 0.175836
vt 0.521746 0.324164
vt 0.608932 0.444164
vt 0.500000 0.500000
vt 0.600000 0.500000
vt 0.700000 0.500000
vt 0.900000 0.500000
vt 1.000000 0.500000
vt 0.800000 0.500000
vt -0.000000 0.500000
vt 0.100000 0.500000
vt 0.200000 0.500000
vn 0.2291 0.1801 -0.9566
vn 0.8410 0.1798 -0.5103
vn 0.9803 0.1797 -0.0821
vn 0.7463 0.1799 0.6408
vn 0.3779 0.1800 0.9082
vn -0.3779 0.1800 0.9082
vn -0.7463 0.1799 0.6408
vn -0.9803 0.1797 -0.0821
vn 0.0000 0.0000 1.0000
vn -0.8410 0.1798 -0.5103
vn -0.2291 0.1801 -0.9566
vn 0.2928 -0.9129 -0.2845
vn 0.2231 -0.3496 0.9099
vn 0.3899 -0.3472 0.8529
vn 0.2077 -0.3557 0.9112
vn 0.3241 -0.3635 0.8734
vn 0.4244 -0.4319 0.7958
vn 0.7980 -0.3485 0.4917
vn 0.6904 -0.3469 0.6348
vn 0.8040 -0.3546 0.4773
vn 0.7302 -0.3631 0.5788
vn 0.6276 -0.4313 0.6481
vn 0.9347 -0.3483 0.0716
vn 0.9318 -0.3462 -0.1092
vn 0.9310 -0.3545 0.0868
vn 0.9311 -0.3625 -0.0406
vn 0.8890 -0.4310 -0.1545
vn 0.7147 -0.3490 -0.6061
vn 0.8178 -0.3464 -0.4596
vn 0.7029 -0.3551 -0.6163
vn 0.7768 -0.3627 -0.5148
vn 0.8105 -0.4314 -0.3962
vn 0.3550 -0.3493 -0.8672
vn 0.1866 -0.3475 -0.9189
vn 0.3683 -0.3554 -0.8591
vn 0.2518 -0.3637 -0.8968
vn 0.1247 -0.4319 -0.8933
vn -0.3550 -0.3493 -0.8672
vn -0.1866 -0.3475 -0.9189
vn -0.3683 -0.3554 -0.8591
vn -0.2518 -0.3637 -0.8968
vn -0.1247 -0.4319 -0.8933
vn -0.7147 -0.3490 -0.6061
vn -0.8178 -0.3464 -0.4596
vn -0.7029 -0.3551 -0.6163
vn -0.7768 -0.3627 -0.5148
vn -0.8105 -0.4314 -0.3962
vn -0.9347 -0.3483 0.0716
vn -0.9318 -0.3462 -0.1092
vn -0.9310 -0.3545 0.0868
vn -0.9311 -0.3625 -0.0406
vn -0.8890 -0.4310 -0.1545
vn -0.7980 -0.3485 0.4917
vn -0.6904 -0.3469 0.6348
vn -0.8040 -0.3546 0.4773
vn -0.7302 -0.3631 0.5788
vn -0.6276 -0.4313 0.6481
vn -0.2231 -0.3496 0.9099
vn -0.3899 -0.3472 0.8529
vn -0.2077 -0.3557 0.9112
vn -0.3241 -0.3635 0.8734
vn -0.4244 -0.4319 0.7958
vn 0.4413 0.2385 -0.8651
vn 0.6861 0.2384 -0.6874
vn 0.9590 0.2379 0.1543
vn 0.8664 0.2380 0.4391
vn 0.1522 0.2387 0.9591
vn -0.1522 0.2387 0.9591
vn -0.8664 0.2380 0.4391
vn -0.9590 0.2379 0.1543
vn -0.6861 0.2384 -0.6874
vn -0.4413 0.2385 -0.8651
vn 0.2071 0.2580 -0.9437
vn 0.8349 0.2573 -0.4865
vn 0.9614 0.2572 -0.0975
vn 0.7214 0.2576 0.6428
vn 0.3878 0.2578 0.8850
vn -0.3878 0.2578 0.8850
vn -0.7214 0.2576 0.6428
vn -0.9614 0.2572 -0.0975
vn -0.8349 0.2573 -0.4865
vn -0.2071 0.2580 -0.9437
vn 0.4379 0.2337 -0.8681
vn 0.6900 0.2335 -0.6851
vn 0.9608 0.2332 0.1502
vn 0.8654 0.2332 0.4435
vn 0.1568 0.2339 0.9595
vn -0.1568 0.2339 0.9595
vn -0.8654 0.2332 0.4435
vn -0.9608 0.2332 0.1502
vn -0.6900 0.2335 -0.6851
vn -0.4379 0.2337 -0.8681
vn 0.1642 0.2178 -0.9621
vn 0.8656 0.2172 -0.4512
vn 0.9654 0.2172 -0.1441
vn 0.6975 0.2175 0.6828
vn 0.4334 0.2176 0.8745
vn -0.4334 0.2176 0.8745
vn -0.6975 0.2175 0.6828
vn -0.9654 0.2172 -0.1441
vn -0.8656 0.2172 -0.4512
vn -0.1642 0.2178 -0.9621
vn 0.4230 0.2069 -0.8822
vn 0.7079 0.2068 -0.6753
vn 0.9695 0.2066 0.1321
vn 0.8618 0.2066 0.4633
vn 0.1772 0.2071 0.9621
vn -0.1772 0.2071 0.9621
vn -0.8618 0.2066 0.4633
vn -0.9695 0.2066 0.1321
vn -0.7079 0.2068 -0.6753
vn -0.4230 0.2069 -0.8822
vn 0.1813 -0.9130 -0.3656
vn -0.1813 -0.9130 -0.3656
vn -0.2928 -0.9129 -0.2845
vn -0.0684 -0.9130 0.4023
vn -0.4042 -0.9128 0.0576
vn -0.3612 -0.9129 0.1902
vn 0.0684 -0.9130 0.4023
vn 0.3612 -0.9129 0.1902
vn 0.4042 -0.9128 0.0576
g Cylinder_Cylinder_Material.001
usemtl Material.001
s off
f 25/1/1 2/2/1 4/3/1 26/4/1
f 26/4/2 4/3/2 6/5/2 31/6/2
f 31/6/3 6/5/3 8/7/3 36/8/3
f 36/8/4 8/7/4 10/9/4 41/10/4
f 41/10/5 10/9/5 12/11/5 46/12/5
f 46/12/6 12/11/6 14/13/6 51/14/6
f 51/14/7 14/13/7 16/15/7 56/16/7
f 56/16/8 16/15/8 18/17/8 61/18/8
f 4/19/9 2/20/9 20/21/9 18/22/9 16/23/9 14/24/9 12/25/9 10/26/9 8/27/9 6/28/9
f 61/18/10 18/17/10 20/29/10 66/30/10
f 66/30/11 20/29/11 2/31/11 25/32/11
f 13/33/12 15/34/12 128/35/12 127/36/12
f 79/37/13 70/38/13 21/39/13 80/40/13
f 90/41/14 69/42/14 22/43/14 81/44/14
f 100/45/15 68/46/15 23/47/15 91/48/15
f 110/49/16 67/50/16 24/51/16 101/52/16
f 120/53/17 66/30/17 25/32/17 111/54/17
f 78/55/18 65/56/18 70/38/18 79/37/18
f 89/57/19 64/58/19 69/42/19 90/41/19
f 99/59/20 63/60/20 68/46/20 100/45/20
f 109/61/21 62/62/21 67/50/21 110/49/21
f 119/63/22 61/18/22 66/30/22 120/53/22
f 77/64/23 60/65/23 65/56/23 78/55/23
f 88/66/24 59/67/24 64/58/24 89/57/24
f 98/68/25 58/69/25 63/60/25 99/59/25
f 108/70/26 57/71/26 62/62/26 109/61/26
f 118/72/27 56/16/27 61/18/27 119/63/27
f 76/73/28 55/74/28 60/65/28 77/64/28
f 87/75/29 54/76/29 59/67/29 88/66/29
f 97/77/30 53/78/30 58/69/30 98/68/30
f 107/79/31 52/80/31 57/71/31 108/70/31
f 117/81/32 51/14/32 56/16/32 118/72/32
f 75/82/33 50/83/33 55/74/33 76/73/33
f 86/84/34 49/85/34 54/76/34 87/75/34
f 96/86/35 48/87/35 53/78/35 97/77/35
f 106/88/36 47/89/36 52/80/36 107/79/36
f 116/90/37 46/12/37 51/14/37 117/81/37
f 74/91/38 45/92/38 50/83/38 75/82/38
f 85/93/39 44/94/39 49/85/39 86/84/39
f 95/95/40 43/96/40 48/87/40 96/86/40
f 105/97/41 42/98/41 47/89/41 106/88/41
f 115/99/42 41/10/42 46/12/42 116/90/42
f 73/100/43 40/101/43 45/92/43 74/91/43
f 84/102/44 39/103/44 44/94/44 85/93/44
f 94/104/45 38/105/45 43/96/45 95/95/45
f 104/106/46 37/107/46 42/98/46 105/97/46
f 114/108/47 36/8/47 41/10/47 115/99/47
f 72/109/48 35/110/48 40/101/48 73/100/48
f 83/111/49 34/112/49 39/103/49 84/102/49
f 93/113/50 33/114/50 38/105/50 94/104/50
f 103/115/51 32/116/51 37/107/51 104/106/51
f 113/117/52 31/6/52 36/8/52 114/108/52
f 71/118/53 30/119/53 35/110/53 72/109/53
f 82/120/54 29/121/54 34/112/54 83/111/54
f 92/122/55 28/123/55 33/114/55 93/113/55
f 102/124/56 27/125/56 32/116/56 103/115/56
f 112/126/57 26/4/57 31/6/57 113/117/57
f 80/127/58 21/128/58 30/119/58 71/118/58
f 81/129/59 22/130/59 29/121/59 82/120/59
f 91/131/60 23/132/60 28/123/60 92/122/60
f 101/133/61 24/134/61 27/125/61 102/124/61
f 111/135/62 25/1/62 26/4/62 112/126/62
f 1/136/63 80/127/63 71/118/63 3/137/63
f 3/137/64 71/118/64 72/109/64 5/138/64
f 5/138/65 72/109/65 73/100/65 7/139/65
f 7/139/66 73/100/66 74/91/66 9/140/66
f 9/140/67 74/91/67 75/82/67 11/141/67
f 11/141/68 75/82/68 76/73/68 13/33/68
f 13/33/69 76/73/69 77/64/69 15/34/69
f 15/34/70 77/64/70 78/55/70 17/142/70
f 17/142/71 78/55/71 79/37/71 19/143/71
f 19/143/72 79/37/72 80/40/72 1/144/72
f 21/128/73 81/129/73 82/120/73 30/119/73
f 30/119/74 82/120/74 83/111/74 35/110/74
f 35/110/75 83/111/75 84/102/75 40/101/75
f 40/101/76 84/102/76 85/93/76 45/92/76
f 45/92/77 85/93/77 86/84/77 50/83/77
f 50/83/78 86/84/78 87/75/78 55/74/78
f 55/74/79 87/75/79 88/66/79 60/65/79
f 60/65/80 88/66/80 89/57/80 65/56/80
f 65/56/81 89/57/81 90/41/81 70/38/81
f 70/38/82 90/41/82 81/44/82 21/39/82
f 22/130/83 91/131/83 92/122/83 29/121/83
f 29/121/84 92/122/84 93/113/84 34/112/84
f 34/112/85 93/113/85 94/104/85 39/103/85
f 39/103/86 94/104/86 95/95/86 44/94/86
f 44/94/87 95/95/87 96/86/87 49/85/87
f 49/85/88 96/86/88 97/77/88 54/76/88
f 54/76/89 97/77/89 98/68/89 59/67/89
f 59/67/90 98/68/90 99/59/90 64/58/90
f 64/58/91 99/59/91 100/45/91 69/42/91
f 69/42/92 100/45/92 91/48/92 22/43/92
f 23/132/93 101/133/93 102/124/93 28/123/93
f 28/123/94 102/124/94 103/115/94 33/114/94
f 33/114/95 103/115/95 104/106/95 38/105/95
f 38/105/96 104/106/96 105/97/96 43/96/96
f 43/96/97 105/97/97 106/88/97 48/87/97
f 48/87/98 106/88/98 107/79/98 53/78/98
f 53/78/99 107/79/99 108/70/99 58/69/99
f 58/69/100 108/70/100 109/61/100 63/60/100
f 63/60/101 109/61/101 110/49/101 68/46/101
f 68/46/102 110/49/102 101/52/102 23/47/102
f 24/134/103 111/135/103 112/126/103 27/125/103
f 27/125/104 112/126/104 113/117/104 32/116/104
f 32/116/105 113/117/105 114/108/105 37/107/105
f 37/107/106 114/108/106 115/99/106 42/98/106
f 42/98/107 115/99/107 116/90/107 47/89/107
f 47/89/108 116/90/108 117/81/108 52/80/108
f 52/80/109 117/81/109 118/72/109 57/71/109
f 57/71/110 118/72/110 119/63/110 62/62/110
f 62/62/111 119/63/111 120/53/111 67/50/111
f 67/50/112 120/53/112 111/54/112 24/51/112
f 121/145/9 122/146/9 123/147/9 124/148/9 125/149/9 126/150/9 127/151/9 128/152/9 129/153/9 130/154/9
f 11/141/113 13/33/113 127/36/113 126/155/113
f 9/140/114 11/141/114 126/155/114 125/156/114
f 7/139/115 9/140/115 125/156/115 124/157/115
f 1/136/116 3/137/116 122/158/116 121/159/116
f 5/138/117 7/139/117 124/157/117 123/160/117
f 3/137/118 5/138/118 123/160/118 122/158/118
f 19/143/119 1/144/119 121/161/119 130/162/119
f 17/142/120 19/143/120 130/162/120 129/163/120
f 15/34/121 17/142/121 129/163/121 128/35/121
o Cylinder.001
v -0.000000 0.000000 -0.845162
v 0.000000 2.939752 -0.399889
v 0.496774 0.000000 -0.683751
v 0.235049 2.939752 -0.323517
v 0.803797 0.000000 -0.261169
v 0.380317 2.939752 -0.123573
v 0.803797 0.000000 0.261169
v 0.380317 2.939752 0.123573
v 0.496774 0.000000 0.683751
v 0.235049 2.939752 0.323517
v -0.000000 0.000000 0.845162
v -0.000000 2.939752 0.399889
v -0.496774 0.000000 0.683751
v -0.235049 2.939752 0.323517
v -0.803797 0.000000 0.261170
v -0.380317 2.939752 0.123573
v -0.803797 0.000000 -0.261170
v -0.380317 2.939752 -0.123573
v -0.496774 0.000000 -0.683751
v -0.235049 2.939752 -0.323517
v 0.000000 0.971567 -0.661371
v 0.388744 0.971567 -0.535060
v 0.629001 0.971567 -0.204375
v 0.629001 0.971567 0.204375
v 0.388744 0.971567 0.535060
v -0.000000 0.971567 0.661371
v -0.388744 0.971567 0.535060
v -0.629001 0.971567 0.204375
v -0.629001 0.971567 -0.204375
v -0.388744 0.971567 -0.535061
vt 1.000000 0.749975
vt 1.000000 1.000000
vt 0.900000 1.000000
vt 0.900000 0.749975
vt 0.800000 1.000000
vt 0.800000 0.749975
vt 0.700000 1.000000
vt 0.700000 0.749975
vt 0.600000 1.000000
vt 0.600000 0.749975
vt 0.500000 1.000000
vt 0.500000 0.749975
vt 0.400000 1.000000
vt 0.400000 0.749975
vt 0.300000 1.000000
vt 0.300000 0.749975
vt 0.200000 1.000000
vt 0.200000 0.749975
vt 0.391068 0.444164
vt 0.250000 0.490000
vt 0.108932 0.444164
vt 0.021746 0.324164
vt 0.021746 0.175836
vt 0.108932 0.055836
vt 0.250000 0.010000
vt 0.391068 0.055836
vt 0.478254 0.175836
vt 0.478254 0.324164
vt 0.100000 1.000000
vt 0.100000 0.749975
vt -0.000000 1.000000
vt -0.000000 0.749975
vt 0.750000 0.490000
vt 0.891068 0.444164
vt 0.978254 0.324164
vt 0.978254 0.175836
vt 0.891068 0.055836
vt 0.750000 0.010000
vt 0.608932 0.055836
vt 0.521746 0.175836
vt 0.521746 0.324164
vt 0.608932 0.444164
vt 0.100000 0.500000
vt -0.000000 0.500000
vt 0.200000 0.500000
vt 0.300000 0.500000
vt 0.400000 0.500000
vt 0.500000 0.500000
vt 0.600000 0.500000
vt 0.700000 0.500000
vt 0.800000 0.500000
vt 0.900000 0.500000
vt 1.000000 0.500000
vn 0.3066 0.1254 -0.9436
vn 0.8026 0.1254 -0.5831
vn 0.9921 0.1254 0.0000
vn 0.8026 0.1254 0.5831
vn 0.3066 0.1254 0.9436
vn -0.3066 0.1254 0.9436
vn -0.8026 0.1254 0.5831
vn -0.9921 0.1254 0.0000
vn 0.0000 1.0000 -0.0000
vn -0.8026 0.1254 -0.5831
vn -0.3066 0.1254 -0.9436
vn 0.0000 -1.0000 -0.0000
vn -0.3041 0.1771 -0.9360
vn -0.7962 0.1771 -0.5785
vn -0.9842 0.1771 0.0000
vn -0.7962 0.1771 0.5785
vn -0.3041 0.1771 0.9360
vn 0.3041 0.1771 0.9360
vn 0.7962 0.1771 0.5785
vn 0.9842 0.1771 0.0000
vn 0.7962 0.1771 -0.5785
vn 0.3041 0.1771 -0.9360
g Cylinder.001_Cylinder.001_Material.002
usemtl Material.002
s off
f 151/164/122 132/165/122 134/166/122 152/167/122
f 152/167/123 134/166/123 136/168/123 153/169/123
f 153/169/124 136/168/124 138/170/124 154/171/124
f 154/171/125 138/170/125 140/172/125 155/173/125
f 155/173/126 140/172/126 142/174/126 156/175/126
f 156/175/127 142/174/127 144/176/127 157/177/127
f 157/177/128 144/176/128 146/178/128 158/179/128
f 158/179/129 146/178/129 148/180/129 159/181/129
f 134/182/130 132/183/130 150/184/130 148/185/130 146/186/130 144/187/130 142/188/130 140/189/130 138/190/130 136/191/130
f 159/181/131 148/180/131 150/192/131 160/193/131
f 160/193/132 150/192/132 132/194/132 151/195/132
f 131/196/133 133/197/133 135/198/133 137/199/133 139/200/133 141/201/133 143/202/133 145/203/133 147/204/133 149/205/133
f 149/206/134 160/193/134 151/195/134 131/207/134
f 147/208/135 159/181/135 160/193/135 149/206/135
f 145/209/136 158/179/136 159/181/136 147/208/136
f 143/210/137 157/177/137 158/179/137 145/209/137
f 141/211/138 156/175/138 157/177/138 143/210/138
f 139/212/139 155/173/139 156/175/139 141/211/139
f 137/213/140 154/171/140 155/173/140 139/212/140
f 135/214/141 153/169/141 154/171/141 137/213/141
f 133/215/142 152/167/142 153/169/142 135/214/142
f 131/216/143 151/164/143 152/167/143 133/215/143
