{
  "accessors": [
    {
      "bufferView": 2,
      "componentType": 5126,
      "count": 122,
      "max": [
        0.381473183631897,
        6.805815696716309,
        0.07042939960956573
      ],
      "min": [
        -0.12285745143890381,
        -0.003219903912395239,
        -0.1951618641614914
      ],
      "type": "VEC3"
    },
    {
      "bufferView": 2,
      "byteOffset": 1464,
      "componentType": 5126,
      "count": 122,
      "max": [
        0.9995930194854736,
        0.1599944829940796,
        0.9999375343322754
      ],
      "min": [
        -0.9988933801651001,
        -0.11490563303232193,
        -0.9999989867210388
      ],
      "type": "VEC3"
    },
    {
      "bufferView": 1,
      "componentType": 5126,
      "count": 122,
      "max": [
        1.0,
        0.7288872599601746
      ],
      "min": [
        1.0,
        0.1971922218799591
      ],
      "type": "VEC2"
    },
    {
      "bufferView": 1,
      "byteOffset": 976,
      "componentType": 5126,
      "count": 122,
      "max": [
        0.40824198722839355,
        11.775873184204102
      ],
      "min": [
        -0.5917580127716064,
        0.08230000734329224
      ],
      "type": "VEC2"
    },
    {
      "bufferView": 1,
      "byteOffset": 1952,
      "componentType": 5126,
      "count": 122,
      "max": [
        0.40824198722839355,
        11.775873184204102
      ],
      "min": [
        -0.5917580127716064,
        0.08230000734329224
      ],
      "type": "VEC2"
    },
    {
      "bufferView": 0,
      "componentType": 5125,
      "count": 549,
      "type": "SCALAR"
    },
    {
      "bufferView": 2,
      "byteOffset": 2928,
      "componentType": 5126,
      "count": 1245,
      "max": [
        4.593898296356201,
        7.051124095916748,
        4.575571537017822
      ],
      "min": [
        -4.9483323097229,
        -0.6708023548126221,
        -5.053163051605225
      ],
      "type": "VEC3"
    },
    {
      "bufferView": 2,
      "byteOffset": 17868,
      "componentType": 5126,
      "count": 1245,
      "max": [
        0.9992907047271729,
        0.999274730682373,
        0.99955153465271
      ],
      "min": [
        -0.9985638856887817,
        -0.4031481146812439,
        -0.9941858053207397
      ],
      "type": "VEC3"
    },
    {
      "bufferView": 1,
      "byteOffset": 2928,
      "componentType": 5126,
      "count": 1245,
      "max": [
        0.765625,
        0.979674756526947
      ],
      "min": [
        0.2539007067680359,
        0.0833333283662796
      ],
      "type": "VEC2"
    },
    {
      "bufferView": 1,
      "byteOffset": 12888,
      "componentType": 5126,
      "count": 1245,
      "max": [
        0.765625,
        0.979674756526947
      ],
      "min": [
        0.2539007067680359,
        0.0833333283662796
      ],
      "type": "VEC2"
    },
    {
      "bufferView": 1,
      "byteOffset": 22848,
      "componentType": 5126,
      "count": 1245,
      "max": [
        1.0,
        1.0
      ],
      "min": [
        1.0,
        0.19745096564292908
      ],
      "type": "VEC2"
    },
    {
      "bufferView": 1,
      "byteOffset": 32808,
      "componentType": 5126,
      "count": 1245,
      "max": [
        0.765625,
        0.979674756526947
      ],
      "min": [
        0.2539007067680359,
        0.0833333283662796
      ],
      "type": "VEC2"
    },
    {
      "bufferView": 0,
      "byteOffset": 2196,
      "componentType": 5125,
      "count": 3984,
      "type": "SCALAR"
    }
  ],
  "asset": {
    "extras": {
      "author": "SCADL & Co (https://sketchfab.com/scadl)",
      "license": "CC-BY-4.0 (http://creativecommons.org/licenses/by/4.0/)",
      "source": "https://sketchfab.com/3d-models/laurel-bush-2616665bf38b4ff7b62c5452629bd5b1",
      "title": "Laurel Bush"
    },
    "generator": "Sketchfab-12.68.0",
    "version": "2.0"
  },
  "bufferViews": [
    {
      "buffer": 0,
      "byteLength": 18132,
      "name": "floatBufferViews",
      "target": 34963
    },
    {
      "buffer": 0,
      "byteLength": 42768,
      "byteOffset": 18132,
      "byteStride": 8,
      "name": "floatBufferViews",
      "target": 34962
    },
    {
      "buffer": 0,
      "byteLength": 32808,
      "byteOffset": 60900,
      "byteStride": 12,
      "name": "floatBufferViews",
      "target": 34962
    }
  ],
  "buffers": [
    {
      "byteLength": 93708,
      "uri": "scene.bin"
    }
  ],
  "images": [
    {
      "uri": "textures/Sample_Leaf_Mat_baseColor.png"
    }
  ],
  "materials": [
    {
      "doubleSided": true,
      "name": "Sample_Petal_Mat",
      "pbrMetallicRoughness": {
        "baseColorFactor": [
          0.352941,
          0.333333,
          0.0,
          1.0
        ],
        "metallicFactor": 0.0,
        "roughnessFactor": 0.9577051494623774
      }
    },
    {
      "alphaMode": "BLEND",
      "doubleSided": true,
      "name": "Sample_Leaf_Mat",
      "pbrMetallicRoughness": {
        "baseColorTexture": {
          "index": 0
        },
        "metallicFactor": 0.0,
        "roughnessFactor": 0.9577051494623774
      }
    }
  ],
  "meshes": [
    {
      "name": "lavr_Sample_Petal_Mat_0",
      "primitives": [
        {
          "attributes": {
            "NORMAL": 1,
            "POSITION": 0,
            "TEXCOORD_0": 2,
            "TEXCOORD_1": 3,
            "TEXCOORD_2": 4
          },
          "indices": 5,
          "material": 0,
          "mode": 4
        }
      ]
    },
    {
      "name": "lavr_Sample_Leaf_Mat_0",
      "primitives": [
        {
          "attributes": {
            "NORMAL": 7,
            "POSITION": 6,
            "TEXCOORD_0": 8,
            "TEXCOORD_1": 9,
            "TEXCOORD_2": 10,
            "TEXCOORD_3": 11
          },
          "indices": 12,
          "material": 1,
          "mode": 4
        }
      ]
    }
  ],
  "nodes": [
    {
      "children": [
        1
      ],
      "matrix": [
        1.0,
        0.0,
        0.0,
        0.0,
        0.0,
        2.220446049250313e-16,
        -1.0,
        0.0,
        0.0,
        1.0,
        2.220446049250313e-16,
        0.0,
        0.0,
        0.0,
        0.0,
        1.0
      ],
      "name": "Sketchfab_model"
    },
    {
      "children": [
        2
      ],
      "matrix": [
        1.0,
        0.0,
        0.0,
        0.0,
        0.0,
        0.0,
        1.0,
        0.0,
        0.0,
        -1.0,
        0.0,
        0.0,
        0.0,
        0.0,
        0.0,
        1.0
      ],
      "name": "dfe0b2480e09430584b757b650b503ca.fbx"
    },
    {
      "children": [
        3
      ],
      "name": "RootNode"
    },
    {
      "children": [
        4,
        5
      ],
      "name": "lavr"
    },
    {
      "mesh": 0,
      "name": "lavr_Sample_Petal_Mat_0"
    },
    {
      "mesh": 1,
      "name": "lavr_Sample_Leaf_Mat_0"
    }
  ],
  "samplers": [
    {
      "magFilter": 9729,
      "minFilter": 9987,
      "wrapS": 10497,
      "wrapT": 10497
    }
  ],
  "scene": 0,
  "scenes": [
    {
      "name": "Sketchfab_Scene",
      "nodes": [
        0
      ]
    }
  ],
  "textures": [
    {
      "sampler": 0,
      "source": 0
    }
  ]
}
