{
  "accessors": [
    {
      "bufferView": 2,
      "componentType": 5126,
      "count": 483,
      "max": [
        1.7469799518585205,
        2.720223903656006,
        7.731770992279053
      ],
      "min": [
        -5.612904071807861,
        -3.9343299865722656,
        -0.09180299937725067
      ],
      "type": "VEC3"
    },
    {
      "bufferView": 2,
      "byteOffset": 5796,
      "componentType": 5126,
      "count": 483,
      "max": [
        0.9993295073509216,
        0.9996063709259033,
        0.5171731114387512
      ],
      "min": [
        -0.9993757605552673,
        -0.9996063709259033,
        -0.9826365113258362
      ],
      "type": "VEC3"
    },
    {
      "bufferView": 1,
      "componentType": 5126,
      "count": 483,
      "max": [
        0.9480879902839661,
        1.0
      ],
      "min": [
        0.0,
        0.0
      ],
      "type": "VEC2"
    },
    {
      "bufferView": 0,
      "componentType": 5125,
      "count": 2016,
      "type": "SCALAR"
    },
    {
      "bufferView": 2,
      "byteOffset": 11592,
      "componentType": 5126,
      "count": 315,
      "max": [
        3.722320079803467,
        4.974417209625244,
        10.991905212402344
      ],
      "min": [
        -9.010360717773438,
        -5.559028148651123,
        2.556107997894287
      ],
      "type": "VEC3"
    },
    {
      "bufferView": 2,
      "byteOffset": 15372,
      "componentType": 5126,
      "count": 315,
      "max": [
        0.9814527630805969,
        0.9758421182632446,
        0.9826365113258362
      ],
      "min": [
        -0.959845244884491,
        -0.9537999033927917,
        -0.9989368915557861
      ],
      "type": "VEC3"
    },
    {
      "bufferView": 1,
      "byteOffset": 3864,
      "componentType": 5126,
      "count": 315,
      "max": [
        0.9953340291976929,
        0.9962249994277954
      ],
      "min": [
        0.006701999809592962,
        0.024901000782847404
      ],
      "type": "VEC2"
    },
    {
      "bufferView": 0,
      "byteOffset": 8064,
      "componentType": 5125,
      "count": 1152,
      "type": "SCALAR"
    }
  ],
  "asset": {
    "extras": {
      "author": "Gwappa (https://sketchfab.com/Gwappa)",
      "license": "CC-BY-4.0 (http://creativecommons.org/licenses/by/4.0/)",
      "source": "https://sketchfab.com/3d-models/mushrooms-c2dbb88a5e9c4e82a180e13b472015ed",
      "title": "Mushrooms"
    },
    "generator": "Sketchfab-12.68.0",
    "version": "2.0"
  },
  "bufferViews": [
    {
      "buffer": 0,
      "byteLength": 12672,
      "name": "floatBufferViews",
      "target": 34963
    },
    {
      "buffer": 0,
      "byteLength": 6384,
      "byteOffset": 12672,
      "byteStride": 8,
      "name": "floatBufferViews",
      "target": 34962
    },
    {
      "buffer": 0,
      "byteLength": 19152,
      "byteOffset": 19056,
      "byteStride": 12,
      "name": "floatBufferViews",
      "target": 34962
    }
  ],
  "buffers": [
    {
      "byteLength": 38208,
      "uri": "scene.bin"
    }
  ],
  "images": [
    {
      "uri": "textures/standardSurface2SG_baseColor.png"
    },
    {
      "uri": "textures/standardSurface2SG_metallicRoughness.png"
    },
    {
      "uri": "textures/standardSurface3SG_baseColor.png"
    },
    {
      "uri": "textures/standardSurface3SG_metallicRoughness.png"
    },
    {
      "uri": "textures/standardSurface3SG_emissive.png"
    }
  ],
  "materials": [
    {
      "doubleSided": true,
      "name": "standardSurface2SG",
      "pbrMetallicRoughness": {
        "baseColorTexture": {
          "index": 0
        },
        "metallicFactor": 0.0,
        "metallicRoughnessTexture": {
          "index": 1
        }
      }
    },
    {
      "doubleSided": true,
      "emissiveFactor": [
        1.0,
        1.0,
        1.0
      ],
      "emissiveTexture": {
        "index": 4
      },
      "name": "standardSurface3SG",
      "pbrMetallicRoughness": {
        "baseColorTexture": {
          "index": 2
        },
        "metallicFactor": 0.0,
        "metallicRoughnessTexture": {
          "index": 3
        }
      }
    }
  ],
  "meshes": [
    {
      "name": "Object_0",
      "primitives": [
        {
          "attributes": {
            "NORMAL": 1,
            "POSITION": 0,
            "TEXCOORD_0": 2
          },
          "indices": 3,
          "material": 0,
          "mode": 4
        }
      ]
    },
    {
      "name": "Object_1",
      "primitives": [
        {
          "attributes": {
            "NORMAL": 5,
            "POSITION": 4,
            "TEXCOORD_0": 6
          },
          "indices": 7,
          "material": 1,
          "mode": 4
        }
      ]
    }
  ],
  "nodes": [
    {
      "children": [
        1
      ],
      "matrix": [
        1.0,
        0.0,
        0.0,
        0.0,
        0.0,
        2.220446049250313e-16,
        -1.0,
        0.0,
        0.0,
        1.0,
        2.220446049250313e-16,
        0.0,
        0.0,
        0.0,
        0.0,
        1.0
      ],
      "name": "Sketchfab_model"
    },
    {
      "children": [
        2,
        3
      ],
      "name": "c3dcb1f8e4154e5a96b0b15028874520.obj.cleaner.materialmerger.gles"
    },
    {
      "mesh": 0,
      "name": "Object_2"
    },
    {
      "mesh": 1,
      "name": "Object_3"
    }
  ],
  "samplers": [
    {
      "magFilter": 9729,
      "minFilter": 9987,
      "wrapS": 10497,
      "wrapT": 10497
    }
  ],
  "scene": 0,
  "scenes": [
    {
      "name": "Sketchfab_Scene",
      "nodes": [
        0
      ]
    }
  ],
  "textures": [
    {
      "sampler": 0,
      "source": 0
    },
    {
      "sampler": 0,
      "source": 1
    },
    {
      "sampler": 0,
      "source": 2
    },
    {
      "sampler": 0,
      "source": 3
    },
    {
      "sampler": 0,
      "source": 4
    }
  ]
}
