# Blender v2.90.1 OBJ File: 'Tent.blend'
# www.blender.org
mtllib tent.mtl
o Tent_Cube
v 1.234405 0.434732 -1.908651
v 1.234405 0.434732 1.908651
v -1.234405 0.434732 -1.908651
v -1.234405 0.434732 1.908651
v 0.000000 1.767616 1.908651
v 0.000000 1.767616 -1.908651
v 0.447671 1.171682 -1.908651
v 0.447671 1.171682 1.908651
v -0.447671 1.171682 1.908651
v -0.447671 1.171682 -1.908651
v 0.718298 0.834723 -1.908651
v 0.718298 0.834723 1.908651
v -0.718298 0.834723 1.908651
v -0.718298 0.834723 -1.908651
v 1.468288 0.418737 -2.107008
v 1.468288 0.013005 -2.107008
v 1.468288 0.418737 2.107008
v 1.468288 0.013005 2.107008
v -1.468288 0.418737 -2.107008
v -1.468288 0.013005 -2.107008
v -1.468288 0.418737 2.107008
v -1.468288 0.013005 2.107008
v 0.000000 2.004164 2.107008
v 0.000000 2.004164 -2.107008
v 0.500000 0.004164 2.107008
v 0.532491 1.295318 -2.107008
v 0.500000 0.004164 -2.107008
v 0.532491 1.295318 2.107008
v -0.500000 0.004164 -2.107008
v -0.532491 1.295318 2.107008
v -0.500000 0.004164 2.107008
v -0.532491 1.295318 -2.107008
v 0.750000 0.004164 2.107008
v 0.854395 0.894514 -2.107008
v 0.750000 0.004164 -2.107008
v 0.854395 0.894514 2.107008
v -0.750000 0.004164 -2.107008
v -0.854395 0.894514 2.107008
v -0.750000 0.004164 2.107008
v -0.854395 0.894514 -2.107008
v 1.234405 0.010126 -1.908651
v 0.434742 0.004164 -1.908651
v 0.500000 0.004164 -1.908651
v 0.684071 0.004164 -1.908651
v -0.684071 0.004164 -1.908651
v -0.500000 0.004164 -1.908651
v -0.434742 0.004164 -1.908651
v 0.750000 0.004164 -1.908651
v -1.234405 0.010126 -1.908651
v 1.234405 0.010126 1.908651
v -1.234405 0.010126 1.908651
v -0.750000 0.004164 -1.908651
v -0.500000 0.004164 1.908651
v -0.434742 0.004164 1.908651
v -0.684071 0.004164 1.908651
v -0.750000 0.004164 1.908651
v 0.434742 0.004164 1.908651
v 0.500000 0.004164 1.908651
v 0.684071 0.004164 1.908651
v 0.750000 0.004164 1.908651
v -0.014172 1.656911 -2.107007
v -0.014172 1.656911 -1.908652
v -0.014172 1.656911 1.908652
v -0.014172 1.656911 2.107007
v -0.230117 0.004164 -2.107008
v -0.230117 0.004164 -1.908651
v -0.230117 0.004164 1.908651
v -0.230117 0.004164 2.107008
v 0.230117 0.004164 -2.107008
v 0.230117 0.004164 -1.908651
v 0.230117 0.004164 2.107008
v 0.230117 0.004164 1.908651
v 0.014172 1.656911 -2.107008
v 0.014172 1.656911 -1.908651
v 0.014172 1.656911 1.908652
v 0.014172 1.656911 2.107008
v 0.000000 1.656911 -2.107008
v 0.000000 1.656911 -1.908651
v 0.000000 1.656911 1.908651
v 0.000000 1.656911 2.107008
v 0.000000 0.003613 -2.040722
v 0.000000 1.733410 -2.040722
v 0.008183 0.003613 -2.039916
v 0.008183 1.733410 -2.039916
v 0.016051 0.003613 -2.037529
v 0.016051 1.733410 -2.037529
v 0.023303 0.003613 -2.033653
v 0.023303 1.733410 -2.033653
v 0.029659 0.003613 -2.028436
v 0.029659 1.733410 -2.028436
v 0.034875 0.003613 -2.022080
v 0.034875 1.733410 -2.022080
v 0.038751 0.003613 -2.014829
v 0.038751 1.733410 -2.014829
v 0.041138 0.003613 -2.006960
v 0.041138 1.733410 -2.006960
v 0.041944 0.003613 -1.998777
v 0.041944 1.733410 -1.998777
v 0.041138 0.003613 -1.990595
v 0.041138 1.733410 -1.990595
v 0.038751 0.003613 -1.982726
v 0.038751 1.733410 -1.982726
v 0.034875 0.003613 -1.975474
v 0.034875 1.733410 -1.975474
v 0.029659 0.003613 -1.969118
v 0.029659 1.733410 -1.969118
v 0.023303 0.003613 -1.963902
v 0.023303 1.733410 -1.963902
v 0.016051 0.003613 -1.960026
v 0.016051 1.733410 -1.960026
v 0.008183 0.003613 -1.957639
v 0.008183 1.733410 -1.957639
v 0.000000 0.003613 -1.956833
v 0.000000 1.733410 -1.956833
v -0.008183 0.003613 -1.957639
v -0.008183 1.733410 -1.957639
v -0.016051 0.003613 -1.960026
v -0.016051 1.733410 -1.960026
v -0.023303 0.003613 -1.963902
v -0.023303 1.733410 -1.963902
v -0.029659 0.003613 -1.969118
v -0.029659 1.733410 -1.969118
v -0.034875 0.003613 -1.975474
v -0.034875 1.733410 -1.975474
v -0.038751 0.003613 -1.982726
v -0.038751 1.733410 -1.982726
v -0.041138 0.003613 -1.990595
v -0.041138 1.733410 -1.990595
v -0.041944 0.003613 -1.998777
v -0.041944 1.733410 -1.998777
v -0.041138 0.003613 -2.006960
v -0.041138 1.733410 -2.006960
v -0.038751 0.003613 -2.014829
v -0.038751 1.733410 -2.014829
v -0.034875 0.003613 -2.022080
v -0.034875 1.733410 -2.022080
v -0.029659 0.003613 -2.028436
v -0.029659 1.733410 -2.028436
v -0.023303 0.003613 -2.033653
v -0.023303 1.733410 -2.033653
v -0.016051 0.003613 -2.037529
v -0.016051 1.733410 -2.037529
v -0.008183 0.003613 -2.039916
v -0.008183 1.733410 -2.039916
v 0.000000 0.003613 1.939552
v 0.000000 1.733410 1.939552
v 0.008183 0.003613 1.940358
v 0.008183 1.733410 1.940358
v 0.016051 0.003613 1.942745
v 0.016051 1.733410 1.942745
v 0.023303 0.003613 1.946621
v 0.023303 1.733410 1.946621
v 0.029659 0.003613 1.951837
v 0.029659 1.733410 1.951837
v 0.034875 0.003613 1.958193
v 0.034875 1.733410 1.958193
v 0.038751 0.003613 1.965445
v 0.038751 1.733410 1.965445
v 0.041138 0.003613 1.973313
v 0.041138 1.733410 1.973313
v 0.041944 0.003613 1.981496
v 0.041944 1.733410 1.981496
v 0.041138 0.003613 1.989679
v 0.041138 1.733410 1.989679
v 0.038751 0.003613 1.997548
v 0.038751 1.733410 1.997548
v 0.034875 0.003613 2.004799
v 0.034875 1.733410 2.004799
v 0.029659 0.003613 2.011155
v 0.029659 1.733410 2.011155
v 0.023303 0.003613 2.016371
v 0.023303 1.733410 2.016371
v 0.016051 0.003613 2.020247
v 0.016051 1.733410 2.020247
v 0.008183 0.003613 2.022634
v 0.008183 1.733410 2.022634
v 0.000000 0.003613 2.023440
v 0.000000 1.733410 2.023440
v -0.008183 0.003613 2.022634
v -0.008183 1.733410 2.022634
v -0.016051 0.003613 2.020247
v -0.016051 1.733410 2.020247
v -0.023303 0.003613 2.016371
v -0.023303 1.733410 2.016371
v -0.029659 0.003613 2.011155
v -0.029659 1.733410 2.011155
v -0.034875 0.003613 2.004799
v -0.034875 1.733410 2.004799
v -0.038751 0.003613 1.997548
v -0.038751 1.733410 1.997548
v -0.041138 0.003613 1.989679
v -0.041138 1.733410 1.989679
v -0.041944 0.003613 1.981496
v -0.041944 1.733410 1.981496
v -0.041138 0.003613 1.973313
v -0.041138 1.733410 1.973313
v -0.038751 0.003613 1.965445
v -0.038751 1.733410 1.965445
v -0.034875 0.003613 1.958193
v -0.034875 1.733410 1.958193
v -0.029659 0.003613 1.951837
v -0.029659 1.733410 1.951837
v -0.023303 0.003613 1.946621
v -0.023303 1.733410 1.946621
v -0.016051 0.003613 1.942745
v -0.016051 1.733410 1.942745
v -0.008183 0.003613 1.940358
v -0.008183 1.733410 1.940358
vt 0.843750 0.500000
vt 0.843750 0.750000
vt 0.875000 0.750000
vt 0.875000 0.500000
vt 0.687500 0.500000
vt 0.687500 0.750000
vt 0.750000 0.750000
vt 0.750000 0.500000
vt 0.656250 0.500000
vt 0.656250 0.750000
vt 0.812500 0.750000
vt 0.812500 0.500000
vt 0.625000 0.500000
vt 0.625000 0.750000
vt 0.843750 0.500000
vt 0.875000 0.500000
vt 0.875000 0.750000
vt 0.843750 0.750000
vt 0.375000 0.968750
vt 0.625000 0.968750
vt 0.625000 1.000000
vt 0.375000 1.000000
vt 0.375000 0.000000
vt 0.625000 0.000000
vt 0.625000 0.250000
vt 0.375000 0.250000
vt 0.343750 0.500000
vt 0.375000 0.500000
vt 0.375000 0.750000
vt 0.343750 0.750000
vt 0.343750 0.735840
vt 0.364825 0.735840
vt 0.364825 0.514160
vt 0.343750 0.514160
vt 0.625000 0.500000
vt 0.625000 0.750000
vt 0.375000 0.468750
vt 0.625000 0.468750
vt 0.375000 0.312500
vt 0.625000 0.312500
vt 0.625000 0.375000
vt 0.581593 0.375000
vt 0.583792 0.373329
vt 0.375000 0.346235
vt 0.187500 0.500000
vt 0.221235 0.500000
vt 0.221235 0.514160
vt 0.195657 0.514160
vt 0.187500 0.514160
vt 0.375000 0.812500
vt 0.625000 0.812500
vt 0.625000 0.875000
vt 0.581593 0.875000
vt 0.583792 0.873329
vt 0.375000 0.846235
vt 0.687500 0.500000
vt 0.750000 0.500000
vt 0.750000 0.750000
vt 0.687500 0.750000
vt 0.656250 0.500000
vt 0.656250 0.750000
vt 0.375000 0.781250
vt 0.625000 0.781250
vt 0.156250 0.500000
vt 0.164491 0.514160
vt 0.156250 0.514160
vt 0.375000 0.281250
vt 0.625000 0.281250
vt 0.812500 0.500000
vt 0.812500 0.750000
vt 0.375000 0.437500
vt 0.625000 0.437500
vt 0.312500 0.500000
vt 0.335509 0.514160
vt 0.312500 0.514160
vt 0.125000 0.500000
vt 0.135175 0.514160
vt 0.135175 0.735840
vt 0.156250 0.735840
vt 0.156250 0.750000
vt 0.125000 0.750000
vt 0.375000 0.937500
vt 0.625000 0.937500
vt 0.563366 0.500000
vt 0.625000 0.468750
vt 0.527504 0.468750
vt 0.531440 0.472474
vt 0.563367 0.250000
vt 0.625000 0.250000
vt 0.625000 0.000000
vt 0.563366 0.000000
vt 0.625000 0.437500
vt 0.506671 0.437500
vt 0.512095 0.445687
vt 0.527504 0.968750
vt 0.625000 0.968750
vt 0.625000 0.937500
vt 0.506671 0.937500
vt 0.512095 0.945687
vt 0.312500 0.735840
vt 0.335509 0.735840
vt 0.312500 0.750000
vt 0.164491 0.735840
vt 0.187500 0.735840
vt 0.187500 0.750000
vt 0.506671 0.312500
vt 0.625000 0.312500
vt 0.625000 0.281250
vt 0.527504 0.281250
vt 0.512096 0.304313
vt 0.506671 0.812500
vt 0.625000 0.812500
vt 0.625000 0.781250
vt 0.527504 0.781250
vt 0.512096 0.804313
vt 0.531440 0.277526
vt 0.195657 0.735840
vt 0.221235 0.735840
vt 0.221235 0.750000
vt 0.563366 0.750000
vt 0.531440 0.777526
vt 0.625000 0.875000
vt 0.615963 0.875000
vt 0.617476 0.876981
vt 0.494612 0.908082
vt 0.563366 1.000000
vt 0.625000 1.000000
vt 0.531440 0.972474
vt 0.625000 0.375000
vt 0.615963 0.375000
vt 0.617476 0.376981
vt 0.494612 0.408082
vt 0.625000 0.591420
vt 0.625000 0.595224
vt 0.750000 0.595224
vt 0.875000 0.595224
vt 0.875000 0.591420
vt 0.750000 0.591420
vt 0.625000 0.654776
vt 0.625000 0.658580
vt 0.750000 0.658580
vt 0.875000 0.658580
vt 0.875000 0.654776
vt 0.750000 0.654776
vt 0.418407 0.654491
vt 0.418407 0.658258
vt 0.418407 0.591742
vt 0.418407 0.595509
vt 0.375000 0.903765
vt 0.583792 0.876671
vt 0.375000 0.403765
vt 0.583792 0.376671
vt 0.278765 0.514160
vt 0.278765 0.500000
vt 0.304343 0.514160
vt 0.494612 0.341918
vt 0.617476 0.373019
vt 0.625000 0.158580
vt 0.625000 0.154776
vt 0.418407 0.154491
vt 0.418407 0.158258
vt 0.625000 0.095224
vt 0.625000 0.091420
vt 0.418407 0.091742
vt 0.418407 0.095509
vt 0.278765 0.750000
vt 0.278765 0.735840
vt 0.304343 0.735840
vt 0.494612 0.841918
vt 0.617476 0.873019
vt 1.000000 0.500000
vt 1.000000 1.000000
vt 0.968750 1.000000
vt 0.968750 0.500000
vt 0.937500 1.000000
vt 0.937500 0.500000
vt 0.906250 1.000000
vt 0.906250 0.500000
vt 0.875000 1.000000
vt 0.875000 0.500000
vt 0.843750 1.000000
vt 0.843750 0.500000
vt 0.812500 1.000000
vt 0.812500 0.500000
vt 0.781250 1.000000
vt 0.781250 0.500000
vt 0.750000 1.000000
vt 0.750000 0.500000
vt 0.718750 1.000000
vt 0.718750 0.500000
vt 0.687500 1.000000
vt 0.687500 0.500000
vt 0.656250 1.000000
vt 0.656250 0.500000
vt 0.625000 1.000000
vt 0.625000 0.500000
vt 0.593750 1.000000
vt 0.593750 0.500000
vt 0.562500 1.000000
vt 0.562500 0.500000
vt 0.531250 1.000000
vt 0.531250 0.500000
vt 0.500000 1.000000
vt 0.500000 0.500000
vt 0.468750 1.000000
vt 0.468750 0.500000
vt 0.437500 1.000000
vt 0.437500 0.500000
vt 0.406250 1.000000
vt 0.406250 0.500000
vt 0.375000 1.000000
vt 0.375000 0.500000
vt 0.343750 1.000000
vt 0.343750 0.500000
vt 0.312500 1.000000
vt 0.312500 0.500000
vt 0.281250 1.000000
vt 0.281250 0.500000
vt 0.250000 1.000000
vt 0.250000 0.500000
vt 0.218750 1.000000
vt 0.218750 0.500000
vt 0.187500 1.000000
vt 0.187500 0.500000
vt 0.156250 1.000000
vt 0.156250 0.500000
vt 0.125000 1.000000
vt 0.125000 0.500000
vt 0.093750 1.000000
vt 0.093750 0.500000
vt 0.062500 1.000000
vt 0.062500 0.500000
vt 0.296822 0.485388
vt 0.250000 0.490000
vt 0.203179 0.485389
vt 0.158156 0.471731
vt 0.116663 0.449553
vt 0.080295 0.419706
vt 0.050447 0.383337
vt 0.028269 0.341844
vt 0.014612 0.296822
vt 0.010000 0.250000
vt 0.014611 0.203179
vt 0.028269 0.158156
vt 0.050447 0.116663
vt 0.080294 0.080294
vt 0.116663 0.050447
vt 0.158156 0.028269
vt 0.203178 0.014612
vt 0.250000 0.010000
vt 0.296822 0.014612
vt 0.341844 0.028269
vt 0.383337 0.050447
vt 0.419706 0.080294
vt 0.449553 0.116663
vt 0.471731 0.158156
vt 0.485388 0.203178
vt 0.490000 0.250000
vt 0.485388 0.296822
vt 0.471731 0.341844
vt 0.449553 0.383337
vt 0.419706 0.419706
vt 0.383337 0.449553
vt 0.341844 0.471731
vt 0.031250 1.000000
vt 0.031250 0.500000
vt 0.000000 1.000000
vt 0.000000 0.500000
vt 0.750000 0.490000
vt 0.796822 0.485388
vt 0.841844 0.471731
vt 0.883337 0.449553
vt 0.919706 0.419706
vt 0.949553 0.383337
vt 0.971731 0.341844
vt 0.985388 0.296822
vt 0.990000 0.250000
vt 0.985388 0.203178
vt 0.971731 0.158156
vt 0.949553 0.116663
vt 0.919706 0.080294
vt 0.883337 0.050447
vt 0.841844 0.028269
vt 0.796822 0.014612
vt 0.750000 0.010000
vt 0.703178 0.014612
vt 0.658156 0.028269
vt 0.616663 0.050447
vt 0.580294 0.080294
vt 0.550447 0.116663
vt 0.528269 0.158156
vt 0.514611 0.203179
vt 0.510000 0.250000
vt 0.514612 0.296822
vt 0.528269 0.341844
vt 0.550447 0.383337
vt 0.580295 0.419706
vt 0.616663 0.449553
vt 0.658156 0.471731
vt 0.703179 0.485389
vt 1.000000 0.500000
vt 1.000000 1.000000
vt 0.968750 1.000000
vt 0.968750 0.500000
vt 0.937500 1.000000
vt 0.937500 0.500000
vt 0.906250 1.000000
vt 0.906250 0.500000
vt 0.875000 1.000000
vt 0.875000 0.500000
vt 0.843750 1.000000
vt 0.843750 0.500000
vt 0.812500 1.000000
vt 0.812500 0.500000
vt 0.781250 1.000000
vt 0.781250 0.500000
vt 0.750000 1.000000
vt 0.750000 0.500000
vt 0.718750 1.000000
vt 0.718750 0.500000
vt 0.687500 1.000000
vt 0.687500 0.500000
vt 0.656250 1.000000
vt 0.656250 0.500000
vt 0.625000 1.000000
vt 0.625000 0.500000
vt 0.593750 1.000000
vt 0.593750 0.500000
vt 0.562500 1.000000
vt 0.562500 0.500000
vt 0.531250 1.000000
vt 0.531250 0.500000
vt 0.500000 1.000000
vt 0.500000 0.500000
vt 0.468750 1.000000
vt 0.468750 0.500000
vt 0.437500 1.000000
vt 0.437500 0.500000
vt 0.406250 1.000000
vt 0.406250 0.500000
vt 0.375000 1.000000
vt 0.375000 0.500000
vt 0.343750 1.000000
vt 0.343750 0.500000
vt 0.312500 1.000000
vt 0.312500 0.500000
vt 0.281250 1.000000
vt 0.281250 0.500000
vt 0.250000 1.000000
vt 0.250000 0.500000
vt 0.218750 1.000000
vt 0.218750 0.500000
vt 0.187500 1.000000
vt 0.187500 0.500000
vt 0.156250 1.000000
vt 0.156250 0.500000
vt 0.125000 1.000000
vt 0.125000 0.500000
vt 0.093750 1.000000
vt 0.093750 0.500000
vt 0.062500 1.000000
vt 0.062500 0.500000
vt 0.296822 0.485388
vt 0.250000 0.490000
vt 0.203179 0.485389
vt 0.158156 0.471731
vt 0.116663 0.449553
vt 0.080295 0.419706
vt 0.050447 0.383337
vt 0.028269 0.341844
vt 0.014612 0.296822
vt 0.010000 0.250000
vt 0.014611 0.203179
vt 0.028269 0.158156
vt 0.050447 0.116663
vt 0.080294 0.080294
vt 0.116663 0.050447
vt 0.158156 0.028269
vt 0.203178 0.014612
vt 0.250000 0.010000
vt 0.296822 0.014612
vt 0.341844 0.028269
vt 0.383337 0.050447
vt 0.419706 0.080294
vt 0.449553 0.116663
vt 0.471731 0.158156
vt 0.485388 0.203178
vt 0.490000 0.250000
vt 0.485388 0.296822
vt 0.471731 0.341844
vt 0.449553 0.383337
vt 0.419706 0.419706
vt 0.383337 0.449553
vt 0.341844 0.471731
vt 0.031250 1.000000
vt 0.031250 0.500000
vt 0.000000 1.000000
vt 0.000000 0.500000
vt 0.750000 0.490000
vt 0.796822 0.485388
vt 0.841844 0.471731
vt 0.883337 0.449553
vt 0.919706 0.419706
vt 0.949553 0.383337
vt 0.971731 0.341844
vt 0.985388 0.296822
vt 0.990000 0.250000
vt 0.985388 0.203178
vt 0.971731 0.158156
vt 0.949553 0.116663
vt 0.919706 0.080294
vt 0.883337 0.050447
vt 0.841844 0.028269
vt 0.796822 0.014612
vt 0.750000 0.010000
vt 0.703178 0.014612
vt 0.658156 0.028269
vt 0.616663 0.050447
vt 0.580294 0.080294
vt 0.550447 0.116663
vt 0.528269 0.158156
vt 0.514611 0.203179
vt 0.510000 0.250000
vt 0.514612 0.296822
vt 0.528269 0.341844
vt 0.550447 0.383337
vt 0.580295 0.419706
vt 0.616663 0.449553
vt 0.658156 0.471731
vt 0.703179 0.485389
vn 0.6126 -0.7904 0.0000
vn -0.7995 -0.6006 0.0000
vn -0.7797 -0.6262 0.0000
vn 0.7995 -0.6006 0.0000
vn -0.6126 -0.7904 0.0000
vn 0.7797 -0.6262 0.0000
vn -0.6126 0.7904 0.0000
vn -0.0000 0.0000 1.0000
vn -1.0000 0.0000 0.0000
vn 0.0123 -0.9999 0.0000
vn 1.0000 0.0000 0.0000
vn 0.0000 0.0000 -1.0000
vn 0.0000 -1.0000 0.0000
vn 0.7995 0.6006 0.0000
vn 0.7797 0.6262 0.0000
vn -0.7995 0.6006 0.0000
vn 0.6126 0.7904 0.0000
vn -0.0123 -0.9999 0.0000
vn -0.7797 0.6262 0.0000
vn -0.9916 -0.1296 -0.0000
vn 0.9916 -0.1296 -0.0000
vn 0.0980 0.0000 -0.9952
vn 0.2903 0.0000 -0.9569
vn 0.4714 0.0000 -0.8819
vn 0.6344 0.0000 -0.7730
vn 0.7730 0.0000 -0.6344
vn 0.8819 0.0000 -0.4714
vn 0.9569 0.0000 -0.2903
vn 0.9952 0.0000 -0.0980
vn 0.9952 0.0000 0.0980
vn 0.9569 0.0000 0.2903
vn 0.8819 0.0000 0.4714
vn 0.7730 0.0000 0.6344
vn 0.6344 0.0000 0.7730
vn 0.4714 0.0000 0.8819
vn 0.2903 0.0000 0.9569
vn 0.0980 0.0000 0.9952
vn -0.0980 0.0000 0.9952
vn -0.2903 0.0000 0.9569
vn -0.4714 0.0000 0.8819
vn -0.6344 0.0000 0.7730
vn -0.7730 0.0000 0.6344
vn -0.8819 0.0000 0.4714
vn -0.9569 0.0000 0.2903
vn -0.9952 0.0000 0.0980
vn -0.9952 0.0000 -0.0980
vn -0.9569 0.0000 -0.2903
vn -0.8819 0.0000 -0.4714
vn -0.7730 0.0000 -0.6344
vn -0.6344 0.0000 -0.7730
vn -0.4714 0.0000 -0.8819
vn 0.0000 1.0000 -0.0000
vn -0.2903 0.0000 -0.9569
vn -0.0980 0.0000 -0.9952
usemtl TentGreen
s off
f 14/1/1 13/2/1 4/3/1 3/4/1
f 7/5/2 8/6/2 5/7/2 6/8/2
f 11/9/3 12/10/3 8/6/3 7/5/3
f 6/8/4 5/7/4 9/11/4 10/12/4
f 1/13/5 2/14/5 12/10/5 11/9/5
f 10/12/6 9/11/6 13/2/6 14/1/6
f 40/15/7 19/16/7 21/17/7 38/18/7
f 39/19/8 38/20/8 21/21/8 22/22/8
f 22/23/9 21/24/9 19/25/9 20/26/9
f 35/27/10 16/28/10 18/29/10 33/30/10 60/31/10 50/32/10 41/33/10 48/34/10
f 16/28/11 15/35/11 17/36/11 18/29/11
f 35/37/12 34/38/12 15/35/12 16/28/12
f 29/39/12 32/40/12 24/41/12 77/42/12 61/43/12 65/44/12
f 29/45/13 65/46/13 66/47/13 47/48/13 46/49/13
f 25/50/8 28/51/8 23/52/8 80/53/8 76/54/8 71/55/8
f 26/56/14 24/57/14 23/58/14 28/59/14
f 34/60/15 26/56/15 28/59/15 36/61/15
f 33/62/8 36/63/8 28/51/8 25/50/8
f 37/64/13 29/45/13 46/49/13 45/65/13 52/66/13
f 37/67/12 40/68/12 32/40/12 29/39/12
f 24/57/16 32/69/16 30/70/16 23/58/16
f 18/29/8 17/36/8 36/63/8 33/62/8
f 15/35/17 34/60/17 36/61/17 17/36/17
f 27/71/12 26/72/12 34/38/12 35/37/12
f 27/73/13 35/27/13 48/34/13 44/74/13 43/75/13
f 20/26/12 19/25/12 40/68/12 37/67/12
f 20/76/18 37/64/18 52/66/18 49/77/18 51/78/18 56/79/18 39/80/18 22/81/18
f 31/82/8 30/83/8 38/20/8 39/19/8
f 32/69/19 40/15/19 38/18/19 30/70/19
f 41/84/8 1/13/8 11/85/8 44/86/8 48/87/8
f 49/88/11 3/89/11 4/90/11 51/91/11
f 44/86/8 11/85/8 7/92/8 42/93/8 43/94/8
f 55/95/12 13/96/12 9/97/12 54/98/12 53/99/12
f 58/100/13 59/101/13 60/31/13 33/30/13 25/102/13
f 56/79/13 55/103/13 53/104/13 31/105/13 39/80/13
f 47/106/8 10/107/8 14/108/8 45/109/8 46/110/8
f 57/111/12 8/112/12 12/113/12 59/114/12 58/115/12
f 45/109/8 14/108/8 3/89/8 49/88/8 52/116/8
f 53/104/13 54/117/13 67/118/13 68/119/13 31/105/13
f 59/114/12 12/113/12 2/14/12 50/120/12 60/121/12
f 54/98/12 9/97/12 5/122/12 79/123/12 63/124/12 67/125/12
f 51/126/12 4/127/12 13/96/12 55/95/12 56/128/12
f 42/93/8 7/92/8 6/129/8 78/130/8 74/131/8 70/132/8
f 50/120/9 2/14/9 1/13/9 41/84/9
f 73/133/13 74/134/13 78/135/13 62/136/13 61/137/13 77/138/13
f 75/139/13 76/140/13 80/141/13 64/142/13 63/143/13 79/144/13
f 76/140/20 75/139/20 72/145/20 71/146/20
f 74/134/20 73/133/20 69/147/20 70/148/20
f 68/149/8 64/150/8 80/53/8 23/52/8 30/83/8 31/82/8
f 69/151/12 73/152/12 77/42/12 24/41/12 26/72/12 27/71/12
f 70/153/13 69/154/13 27/73/13 43/75/13 42/155/13
f 66/156/8 62/157/8 78/130/8 6/129/8 10/107/8 47/106/8
f 61/158/21 62/159/21 66/160/21 65/161/21
f 63/162/21 64/163/21 68/164/21 67/165/21
f 71/166/13 72/167/13 57/168/13 58/100/13 25/102/13
f 72/169/12 75/170/12 79/123/12 5/122/12 8/112/12 57/111/12
usemtl TentBrown
f 81/171/22 82/172/22 84/173/22 83/174/22
f 83/174/23 84/173/23 86/175/23 85/176/23
f 85/176/24 86/175/24 88/177/24 87/178/24
f 87/178/25 88/177/25 90/179/25 89/180/25
f 89/180/26 90/179/26 92/181/26 91/182/26
f 91/182/27 92/181/27 94/183/27 93/184/27
f 93/184/28 94/183/28 96/185/28 95/186/28
f 95/186/29 96/185/29 98/187/29 97/188/29
f 97/188/30 98/187/30 100/189/30 99/190/30
f 99/190/31 100/189/31 102/191/31 101/192/31
f 101/192/32 102/191/32 104/193/32 103/194/32
f 103/194/33 104/193/33 106/195/33 105/196/33
f 105/196/34 106/195/34 108/197/34 107/198/34
f 107/198/35 108/197/35 110/199/35 109/200/35
f 109/200/36 110/199/36 112/201/36 111/202/36
f 111/202/37 112/201/37 114/203/37 113/204/37
f 113/204/38 114/203/38 116/205/38 115/206/38
f 115/206/39 116/205/39 118/207/39 117/208/39
f 117/208/40 118/207/40 120/209/40 119/210/40
f 119/210/41 120/209/41 122/211/41 121/212/41
f 121/212/42 122/211/42 124/213/42 123/214/42
f 123/214/43 124/213/43 126/215/43 125/216/43
f 125/216/44 126/215/44 128/217/44 127/218/44
f 127/218/45 128/217/45 130/219/45 129/220/45
f 129/220/46 130/219/46 132/221/46 131/222/46
f 131/222/47 132/221/47 134/223/47 133/224/47
f 133/224/48 134/223/48 136/225/48 135/226/48
f 135/226/49 136/225/49 138/227/49 137/228/49
f 137/228/50 138/227/50 140/229/50 139/230/50
f 139/230/51 140/229/51 142/231/51 141/232/51
f 84/233/52 82/234/52 144/235/52 142/236/52 140/237/52 138/238/52 136/239/52 134/240/52 132/241/52 130/242/52 128/243/52 126/244/52 124/245/52 122/246/52 120/247/52 118/248/52 116/249/52 114/250/52 112/251/52 110/252/52 108/253/52 106/254/52 104/255/52 102/256/52 100/257/52 98/258/52 96/259/52 94/260/52 92/261/52 90/262/52 88/263/52 86/264/52
f 141/232/53 142/231/53 144/265/53 143/266/53
f 143/266/54 144/265/54 82/267/54 81/268/54
f 81/269/13 83/270/13 85/271/13 87/272/13 89/273/13 91/274/13 93/275/13 95/276/13 97/277/13 99/278/13 101/279/13 103/280/13 105/281/13 107/282/13 109/283/13 111/284/13 113/285/13 115/286/13 117/287/13 119/288/13 121/289/13 123/290/13 125/291/13 127/292/13 129/293/13 131/294/13 133/295/13 135/296/13 137/297/13 139/298/13 141/299/13 143/300/13
f 145/301/22 146/302/22 148/303/22 147/304/22
f 147/304/23 148/303/23 150/305/23 149/306/23
f 149/306/24 150/305/24 152/307/24 151/308/24
f 151/308/25 152/307/25 154/309/25 153/310/25
f 153/310/26 154/309/26 156/311/26 155/312/26
f 155/312/27 156/311/27 158/313/27 157/314/27
f 157/314/28 158/313/28 160/315/28 159/316/28
f 159/316/29 160/315/29 162/317/29 161/318/29
f 161/318/30 162/317/30 164/319/30 163/320/30
f 163/320/31 164/319/31 166/321/31 165/322/31
f 165/322/32 166/321/32 168/323/32 167/324/32
f 167/324/33 168/323/33 170/325/33 169/326/33
f 169/326/34 170/325/34 172/327/34 171/328/34
f 171/328/35 172/327/35 174/329/35 173/330/35
f 173/330/36 174/329/36 176/331/36 175/332/36
f 175/332/37 176/331/37 178/333/37 177/334/37
f 177/334/38 178/333/38 180/335/38 179/336/38
f 179/336/39 180/335/39 182/337/39 181/338/39
f 181/338/40 182/337/40 184/339/40 183/340/40
f 183/340/41 184/339/41 186/341/41 185/342/41
f 185/342/42 186/341/42 188/343/42 187/344/42
f 187/344/43 188/343/43 190/345/43 189/346/43
f 189/346/44 190/345/44 192/347/44 191/348/44
f 191/348/45 192/347/45 194/349/45 193/350/45
f 193/350/46 194/349/46 196/351/46 195/352/46
f 195/352/47 196/351/47 198/353/47 197/354/47
f 197/354/48 198/353/48 200/355/48 199/356/48
f 199/356/49 200/355/49 202/357/49 201/358/49
f 201/358/50 202/357/50 204/359/50 203/360/50
f 203/360/51 204/359/51 206/361/51 205/362/51
f 148/363/52 146/364/52 208/365/52 206/366/52 204/367/52 202/368/52 200/369/52 198/370/52 196/371/52 194/372/52 192/373/52 190/374/52 188/375/52 186/376/52 184/377/52 182/378/52 180/379/52 178/380/52 176/381/52 174/382/52 172/383/52 170/384/52 168/385/52 166/386/52 164/387/52 162/388/52 160/389/52 158/390/52 156/391/52 154/392/52 152/393/52 150/394/52
f 205/362/53 206/361/53 208/395/53 207/396/53
f 207/396/54 208/395/54 146/397/54 145/398/54
f 145/399/13 147/400/13 149/401/13 151/402/13 153/403/13 155/404/13 157/405/13 159/406/13 161/407/13 163/408/13 165/409/13 167/410/13 169/411/13 171/412/13 173/413/13 175/414/13 177/415/13 179/416/13 181/417/13 183/418/13 185/419/13 187/420/13 189/421/13 191/422/13 193/423/13 195/424/13 197/425/13 199/426/13 201/427/13 203/428/13 205/429/13 207/430/13
